<svg xmlns="http://www.w3.org/2000/svg" width="301.821" height="321.028" viewBox="0 0 301.821 321.028">
  <g id="Black_logo_-_no_background" data-name="Black logo - no background" transform="translate(0 -137.192)">
    <g id="SvgjsG4793" transform="translate(0 137.192)">
      <rect id="Rectangle_1" data-name="Rectangle 1" width="301.821" height="321.028"/>
    </g>
    <g id="SvgjsG4794" transform="translate(54.877 178.349)">
      <path id="Path_1" data-name="Path 1" d="M79.839,594.8l-32.115-.935-.624.312,1.247-1.871c-.312-.312-.624-.624-.935-.624-.624,0-1.247,2.183-2.183,3.118h-18.4c-1.247-2.183-3.118-3.43-3.118-4.989,0-.935.624-2.183.624-2.806,1.247-1.871-1.871-3.742,17.773-3.742,1.871,0,4.053.624,6.236.624,3.118,0,6.236-1.247,6.86-6.548,0-10.6-.312-19.955-.312-30.868,0-5.612.312-13.1.312-19.332,0-13.407,0-25.879-.935-35.545,0-6.548.935-23.073.935-54.565,0-1.247-.312-3.742-.312-4.989,0-2.806.312-3.118.312-6.86,0-2.806-.624-5.924-.624-8.73a19.54,19.54,0,0,1,.624-4.989,32.476,32.476,0,0,1-.312-3.43,11.691,11.691,0,0,1,.312-3.43V370l-1.871-1.247H36.811c-.935.624-2.806.624-4.677.624-1.247,0-3.43.312-3.43-.312,0-.312-4.989.935-4.989-5.612,1.871-4.989,1.247-4.365,4.989-6.236,38.351,0,34.921.624,45.211.624,3.742,0,29.933-.624,37.1-.624l1.871.624h19.02c2.806.935,2.806,2.806,3.742,4.989,0,2.806.312,4.989-3.742,5.924-3.742,0-11.537-.624-19.332-.624-12.16,0-9.042,2.494-11.225,6.86v85.745c0,.935-.624,6.548-.624,7.483,0,.624.624,1.559.624,2.183v18.084c0,.312.624,2.494.624,3.118l-.624,1.247V545.54a14.149,14.149,0,0,0,.624,2.494c0,.312-.312.935-.624,2.183v20.891l-.624,1.559c0,8.73.935,9.666,4.989,11.225,4.989,0,14.343.624,23.385.624,11.537,0,22.45-.935,24.944-4.365-.624,0,6.86-.312,9.042-3.43,1.247.312,4.053-5.612,8.73-5.612,8.107-9.666-1.559,1.559,12.16-12.16-.312,0-.624,0-.624-.312,0-.935,6.548-4.677,6.548-8.107-.624,0,8.73-15.59,8.73-18.4,0-9.666,5.612-14.966,8.107-16.214,5.612.312,9.042-4.365,9.042,12.16,0,11.848-1.559,27.438-2.806,27.126a4.976,4.976,0,0,0,.935,2.494c0,.312-1.247,8.419-1.247,27.438,0,7.483-2.494,4.989-4.677,9.666-17.461,0-17.461-.935-25.256-.935-3.742,0-9.354.935-10.913.935l-20.891-.624c-4.365,0-9.666-.312-12.16-.312.312,0-5.612.624-9.042.624-1.559,0-2.494-.312-3.118-1.247a65.283,65.283,0,0,0-6.548,1.559s-.312-.624-3.118-.624c-1.559,0-5.924.624-9.978.624-2.183,0-2.494-.624-4.365-.624-.624,0-12.16,1.247-16.214,1.247-.935,0-5.612-.624-6.548-.624Zm-49.888-5.3c-.624,0-.624,3.742-.624,4.365h.624Zm10.289,0a10.721,10.721,0,0,0,2.494,4.365c.624-.624,1.247-3.43,1.559-3.118,0-.312-1.871-1.247-3.43-1.247h-.624Zm-1.247,3.118c-.312,0-.312.312-.312.624s0,.624.312.624.312-.312.312-.624S39.305,592.622,38.994,592.622Zm87.616-.935v.624l.624-.624Zm6.548-.935c0,.935.312.935.624,1.559,1.559,0,1.247-.935,1.871-2.183a3.36,3.36,0,0,0-2.494.624Zm3.742,0v1.559c1.247,0,1.247-.624,1.247-1.559Zm4.677,0v.935h.624v-.935Zm-23.073,0v.624l.624.312ZM26.833,589.5a2.413,2.413,0,0,1-.935.312c0,.624,1.247,0,1.247,1.559Zm28.686,0c-.624.312-1.559.312-1.871.624C54.9,590.128,55.519,589.816,55.519,589.5Zm107.571-.624c0-.312,0-.312-.312-.312v.935C163.09,589.5,163.09,589.192,163.09,588.88Zm-8.419-1.871c-.935,0-.624.624-1.247,1.247A1.1,1.1,0,0,0,154.671,587.01Zm13.407-.624c.312.312.312,1.559,1.247,1.871,0-1.559,0-1.871-.624-2.494Zm-140.933,0,1.559.624.624-.624-.624-.624c-1.247,0-1.247,0-1.559.624Zm184.273-33.674a1.088,1.088,0,0,0-.624.312c0,.312.312.312.624.312s.312,0,.312-.312A.305.305,0,0,0,211.418,552.712ZM92.311,536.5v1.559h2.183a2,2,0,0,0-1.559-1.559Zm119.107.312a.624.624,0,0,0,0,1.247c.312,0,.312-.312.312-.624S211.73,536.81,211.418,536.81Zm.935-15.9a19.174,19.174,0,0,0,.312,4.365h1.247v-4.365h-1.559Zm-4.989-.935a3.292,3.292,0,0,0,.624,1.559c.624,0,1.559-.312,1.559-.624,0-.935-.312-1.247-1.247-1.247a1.145,1.145,0,0,0-.935.312ZM57.39,424.562v.624h.624v-.624Zm0-31.492a.305.305,0,0,0-.312-.312c-.312,0-.312,0-.312.312s0,.312.312.312A.305.305,0,0,0,57.39,393.071ZM35.564,366.256v.624h1.247C35.876,366.256,35.564,366.568,35.564,366.256Zm-8.107-3.742c-.312,0-.312,2.494-.312,3.118l.312-1.247H29.64a2.061,2.061,0,0,0-2.183-1.871Zm6.236.312c.624,1.247.624,1.559,1.559,1.559C35.252,362.826,34.317,362.826,33.693,362.826Zm47.082,0v.624h2.183v-.624Zm31.18,0a1.671,1.671,0,0,0,1.247.935c.312,0,.624-.312.935-.312Zm14.655-.935c0,1.247,6.236,1.559,6.548,1.559-.935-2.183-2.494-1.247-4.053-2.183C128.48,361.267,127.233,361.891,126.609,361.891Zm-79.821.624c0,.624.312.312,1.871.312v-.935A12.266,12.266,0,0,0,46.789,362.514Zm26.5,0c-.312,0-.624,0-.624.312a.671.671,0,0,0,.624.624c.312,0,.312-.312.312-.624S73.6,362.514,73.291,362.514Zm15.59,0a.305.305,0,0,0-.312.312,1.089,1.089,0,0,0,.312.624,1.089,1.089,0,0,0,.312-.624A.305.305,0,0,0,88.881,362.514Zm27.75.312c0-.312-.312-.312-.624-.312s-.624,0-.624.312a.624.624,0,0,0,1.247,0Z" transform="translate(-23.715 -357.214)" fill="#fff"/>
    </g>
  </g>
</svg>
